<mxfile host="app.diagrams.net" modified="2024-02-22T13:18:39.323Z" agent="Mozilla/5.0 (Windows NT 10.0; Win64; x64) AppleWebKit/537.36 (KHTML, like Gecko) Chrome/121.0.0.0 Safari/537.36" etag="6Peusn9qRmefK61s4ohZ" version="23.1.1" type="github">
  <diagram name="Page-1" id="MtF2BEL6UkwtOn2qVpsw">
    <mxGraphModel dx="1050" dy="565" grid="1" gridSize="10" guides="1" tooltips="1" connect="1" arrows="1" fold="1" page="1" pageScale="1" pageWidth="827" pageHeight="1169" math="0" shadow="0">
      <root>
        <mxCell id="0" />
        <mxCell id="1" parent="0" />
        <mxCell id="yHfxAZi71i5f-YkpnASW-3" value="" style="rounded=0;whiteSpace=wrap;html=1;" vertex="1" parent="1">
          <mxGeometry x="330" y="200" width="230" height="130" as="geometry" />
        </mxCell>
        <mxCell id="yHfxAZi71i5f-YkpnASW-2" value="" style="whiteSpace=wrap;html=1;aspect=fixed;shape=image;verticalLabelPosition=bottom;verticalAlign=top;imageAspect=0;image=data:image/svg+xml,PHN2ZyB4bWxucz0iaHR0cDovL3d3dy53My5vcmcvMjAwMC9zdmciIHZpZXdCb3g9IjAgMCAyNCAyNCIgcm9sZT0iaW1nIj48dGl0bGU+QW5zaWJsZTwvdGl0bGU+PHBhdGggZD0iTTEwLjYxNyAxMS40NzNsNC42ODYgMy42OTUtMy4xMDItNy42NjJ6TTEyIDBDNS4zNzEgMCAwIDUuMzcxIDAgMTJzNS4zNzEgMTIgMTIgMTIgMTItNS4zNzEgMTItMTJTMTguNjI5IDAgMTIgMHptNS43OTcgMTcuMzA1Yy0uMDExLjQ3MS0uNDAzLjg0Mi0uODc1LjgzLS4yMzYgMC0uNDE2LS4wOS0uNjY0LS4yOTNsLTYuMTktNS0yLjA3OSA1LjIwM0g2LjE5MUwxMS40MzggNS40NGMuMTI0LS4zMTQuNDI3LS41Mi43NjQtLjUwNi4zMjYtLjAxNC42My4xODkuNzQyLjUwNmw0Ljc3NCAxMS40OTRjLjA0NS4xMTEuMDguMjM0LjA4LjM0OC0uMDAxLjAwOS0uMDAxLjAwOS0uMDAxLjAyM3oiLz48L3N2Zz4=;" vertex="1" parent="1">
          <mxGeometry x="395" y="215" width="100" height="100" as="geometry" />
        </mxCell>
        <mxCell id="yHfxAZi71i5f-YkpnASW-4" value="" style="endArrow=none;html=1;rounded=0;exitX=0.52;exitY=1.07;exitDx=0;exitDy=0;exitPerimeter=0;entryX=0.3;entryY=0.91;entryDx=0;entryDy=0;entryPerimeter=0;" edge="1" parent="1">
          <mxGeometry width="50" height="50" relative="1" as="geometry">
            <mxPoint x="340" y="420" as="sourcePoint" />
            <mxPoint x="550" y="420" as="targetPoint" />
          </mxGeometry>
        </mxCell>
        <mxCell id="yHfxAZi71i5f-YkpnASW-8" value="" style="rounded=0;whiteSpace=wrap;html=1;" vertex="1" parent="1">
          <mxGeometry x="280" y="490" width="120" height="60" as="geometry" />
        </mxCell>
        <mxCell id="yHfxAZi71i5f-YkpnASW-9" value="" style="rounded=0;whiteSpace=wrap;html=1;" vertex="1" parent="1">
          <mxGeometry x="490" y="490" width="120" height="60" as="geometry" />
        </mxCell>
        <mxCell id="yHfxAZi71i5f-YkpnASW-13" style="edgeStyle=orthogonalEdgeStyle;rounded=0;orthogonalLoop=1;jettySize=auto;html=1;exitX=0.5;exitY=0;exitDx=0;exitDy=0;strokeColor=default;endArrow=none;endFill=0;" edge="1" parent="1" source="yHfxAZi71i5f-YkpnASW-10">
          <mxGeometry relative="1" as="geometry">
            <mxPoint x="445" y="420" as="targetPoint" />
          </mxGeometry>
        </mxCell>
        <mxCell id="yHfxAZi71i5f-YkpnASW-10" value="" style="rounded=0;whiteSpace=wrap;html=1;" vertex="1" parent="1">
          <mxGeometry x="385" y="600" width="120" height="60" as="geometry" />
        </mxCell>
        <mxCell id="yHfxAZi71i5f-YkpnASW-11" value="" style="endArrow=none;html=1;rounded=0;exitX=0.5;exitY=0;exitDx=0;exitDy=0;" edge="1" parent="1" source="yHfxAZi71i5f-YkpnASW-8">
          <mxGeometry width="50" height="50" relative="1" as="geometry">
            <mxPoint x="290" y="470" as="sourcePoint" />
            <mxPoint x="340" y="420" as="targetPoint" />
          </mxGeometry>
        </mxCell>
        <mxCell id="yHfxAZi71i5f-YkpnASW-12" value="" style="endArrow=none;html=1;rounded=0;exitX=0.5;exitY=0;exitDx=0;exitDy=0;" edge="1" parent="1">
          <mxGeometry width="50" height="50" relative="1" as="geometry">
            <mxPoint x="549.5" y="490" as="sourcePoint" />
            <mxPoint x="549.5" y="420" as="targetPoint" />
          </mxGeometry>
        </mxCell>
        <mxCell id="yHfxAZi71i5f-YkpnASW-14" value="" style="shape=flexArrow;endArrow=classic;html=1;rounded=0;fillColor=#333333;strokeColor=#666666;endWidth=10.476190476190476;endSize=8.87142857142857;" edge="1" parent="1">
          <mxGeometry width="50" height="50" relative="1" as="geometry">
            <mxPoint x="444.76" y="330" as="sourcePoint" />
            <mxPoint x="444.76" y="420" as="targetPoint" />
          </mxGeometry>
        </mxCell>
        <mxCell id="yHfxAZi71i5f-YkpnASW-15" value="" style="shape=image;verticalLabelPosition=bottom;verticalAlign=top;imageAspect=0;aspect=fixed;image=data:image/svg+xml,PHN2ZyB4bWxuczp4bGluaz0iaHR0cDovL3d3dy53My5vcmcvMTk5OS94bGluayIgeG1sbnM9Imh0dHA6Ly93d3cudzMub3JnLzIwMDAvc3ZnIiB3aWR0aD0iNTExLjMwNjU0OTA3MjI2NTYiIHZpZXdCb3g9IjAuMjMxMTUyMDU3NjQ3NzA1MDggMCA1MTEuMzA2NTQ5MDcyMjY1NiAzMTMuMDk0MzYwMzUxNTYyNSIgcHJlc2VydmVBc3BlY3RSYXRpbz0ieE1pZFlNaWQiIGhlaWdodD0iMzEzLjA5NDM2MDM1MTU2MjUiPjxkZWZzPjxsaW5lYXJHcmFkaWVudCBpZD0iYSI+PHN0b3Agc3RvcC1jb2xvcj0iIzQxODczZiIgb2Zmc2V0PSIwIi8+PHN0b3Agc3RvcC1jb2xvcj0iIzQxOGIzZCIgb2Zmc2V0PSIuMzI4OCIvPjxzdG9wIHN0b3AtY29sb3I9IiM0MTk2MzciIG9mZnNldD0iLjYzNTIiLz48c3RvcCBzdG9wLWNvbG9yPSIjM2ZhOTJkIiBvZmZzZXQ9Ii45MzE5Ii8+PHN0b3Agc3RvcC1jb2xvcj0iIzNmYWUyYSIgb2Zmc2V0PSIxIi8+PC9saW5lYXJHcmFkaWVudD48bGluZWFyR3JhZGllbnQgeTI9Ijg5Ljc1NTE0MiUiIHkxPSIxNy40ODY4MzElIiB4bGluazpocmVmPSIjYSIgeDI9IjI3LjgyMjY5NCUiIHgxPSI2OC4xODg0NDElIiBpZD0iYiIvPjxwYXRoIGQ9Im01Ny45MDMzODYgMS44NDkyMDk5M2MtMS44NDkyMDk5LTEuMDQwMTgwNTgtNC4wNDUxNDY3LTEuMDQwMTgwNTgtNS44OTQzNTY3IDBsLTQ4LjY1NzMzNjMgMjguMDg0ODc1ODdjLTEuODQ5MjA5OTMgMS4wNDAxODA2LTIuODg5MzkwNTIgMy4wMDQ5NjYxLTIuODg5MzkwNTIgNS4wODUzMjczdjU2LjI4NTMyNzNjMCAyLjA4MDM2MTIgMS4xNTU3NTYyMSA0LjA0NTE0NjcgMi44ODkzOTA1MiA1LjA4NTMyNzNsNDguNjU3MzM2MyAyOC4wODQ4NzYzYzEuODQ5MjEgMS4wNDAxOCA0LjA0NTE0NjggMS4wNDAxOCA1Ljg5NDM1NjcgMGw0OC42NTczMzYtMjguMDg0ODc2M2MxLjg0OTIxLTEuMDQwMTgwNiAyLjg4OTM5MS0zLjAwNDk2NjEgMi44ODkzOTEtNS4wODUzMjczdi01Ni4yODUzMjczYzAtMi4wODAzNjEyLTEuMTU1NzU2LTQuMDQ1MTQ2Ny0yLjg4OTM5MS01LjA4NTMyNzN6IiBpZD0iYyIvPjxsaW5lYXJHcmFkaWVudCB5Mj0iLTE4LjMwNjEzOCUiIHkxPSI1NS4xNjg3NzclIiB4Mj0iMTU5LjI0NTI3NyUiIHgxPSI0My4yNzY1NDclIiBpZD0iZCI+PHN0b3Agc3RvcC1jb2xvcj0iIzQxODczZiIgb2Zmc2V0PSIuMTM3NiIvPjxzdG9wIHN0b3AtY29sb3I9IiM1NGEwNDQiIG9mZnNldD0iLjQwMzIiLz48c3RvcCBzdG9wLWNvbG9yPSIjNjZiODQ4IiBvZmZzZXQ9Ii43MTM2Ii8+PHN0b3Agc3RvcC1jb2xvcj0iIzZjYzA0YSIgb2Zmc2V0PSIuOTA4MSIvPjwvbGluZWFyR3JhZGllbnQ+PGxpbmVhckdyYWRpZW50IGlkPSJlIj48c3RvcCBzdG9wLWNvbG9yPSIjNmNjMDRhIiBvZmZzZXQ9Ii4wOTE5MTY0NiIvPjxzdG9wIHN0b3AtY29sb3I9IiM2NmI4NDgiIG9mZnNldD0iLjI4NjQiLz48c3RvcCBzdG9wLWNvbG9yPSIjNTRhMDQ0IiBvZmZzZXQ9Ii41OTY4Ii8+PHN0b3Agc3RvcC1jb2xvcj0iIzQxODczZiIgb2Zmc2V0PSIuODYyNCIvPjwvbGluZWFyR3JhZGllbnQ+PGxpbmVhckdyYWRpZW50IHkyPSIxMy40MyUiIHkxPSIxMy40MyUiIHhsaW5rOmhyZWY9IiNlIiB4Mj0iNTMyNy45MyUiIHgxPSItNDQxMy43NyUiIGlkPSJmIi8+PGxpbmVhckdyYWRpZW50IHkyPSI0OS45OTcyMDclIiB5MT0iNDkuOTk3MjA3JSIgeGxpbms6aHJlZj0iI2UiIHgyPSIxMDEuNDk5MjM5JSIgeDE9Ii00LjM4ODgwNCUiIGlkPSJnIi8+PGxpbmVhckdyYWRpZW50IHkyPSIzNi4yMSUiIHkxPSIzNi4yMSUiIHhsaW5rOmhyZWY9IiNlIiB4Mj0iMjcuOTMlIiB4MT0iLTk3MTMuNzclIiBpZD0iaCIvPjxsaW5lYXJHcmFkaWVudCB5Mj0iNTAuMjc1NDIxJSIgeTE9IjUwLjI3NTQyMSUiIHhsaW5rOmhyZWY9IiNlIiB4Mj0iMTAwLjc5Njg0OSUiIHgxPSItMTAzLjg2MDcxNCUiIGlkPSJpIi8+PGxpbmVhckdyYWRpZW50IHkyPSIyMDEuNjA1Mzg3JSIgeTE9Ii0yMTEuMDY5MzYlIiB4bGluazpocmVmPSIjYSIgeDI9IjQuMzkzMjc3JSIgeDE9IjEzMC42MTMwMjUlIiBpZD0iaiIvPjxtYXNrIGZpbGw9IiNmZmYiIGlkPSJrIj48dXNlIHhsaW5rOmhyZWY9IiNjIiBmaWxsPSIjZmZmIi8+PC9tYXNrPjwvZGVmcz48ZyBmaWxsPSJub25lIj48cGF0aCBmaWxsPSIjNTM5ZTQzIiBkPSJtMjUzLjExMDYwOSAzMTMuMDk0MzU3Yy0xLjczMzYzNCAwLTMuMzUxNjkzLS40NjIzMDMtNC44NTQxNzYtMS4yNzEzMzJsLTE1LjM3MTU1Ny05LjEzMDQ3NGMtMi4zMTE1MTMtMS4yNzEzMzItMS4xNTU3NTYtMS43MzM2MzUtLjQ2MjMwMy0xLjk2NDc4NiAzLjEyMDU0Mi0xLjA0MDE4IDMuNjk4NDItMS4yNzEzMzIgNi45MzQ1MzgtMy4xMjA1NDIuMzQ2NzI2LS4yMzExNTEuODA5MDI5LS4xMTU1NzUgMS4xNTU3NTYuMTE1NTc2bDExLjc4ODcxMyA3LjA1MDExM2MuNDYyMzAzLjIzMTE1MSAxLjA0MDE4MS4yMzExNTEgMS4zODY5MDggMGw0Ni4xMTQ2NzItMjYuNjk3OTY4Yy40NjIzMDMtLjIzMTE1Mi42OTM0NTQtLjY5MzQ1NC42OTM0NTQtMS4yNzEzMzJ2LTUzLjI4MDM2MWMwLS41Nzc4NzktLjIzMTE1MS0xLjA0MDE4MS0uNjkzNDU0LTEuMjcxMzMybC00Ni4xMTQ2NzItMjYuNTgyMzkzYy0uNDYyMzAzLS4yMzExNTEtMS4wNDAxODEtLjIzMTE1MS0xLjM4NjkwOCAwbC00Ni4xMTQ2NzMgMjYuNTgyMzkzYy0uNDYyMzAyLjIzMTE1MS0uNjkzNDUzLjgwOTAyOS0uNjkzNDUzIDEuMjcxMzMydjUzLjI4MDM2MWMwIC40NjIzMDIuMjMxMTUxIDEuMDQwMTguNjkzNDUzIDEuMjcxMzMybDEyLjU5Nzc0MyA3LjI4MTI2NGM2LjgxODk2MiAzLjQ2NzI2OCAxMS4wOTUyNi0uNTc3ODc4IDExLjA5NTI2LTQuNjIzMDI1di01Mi41ODY5MDhjMC0uNjkzNDUzLjU3Nzg3OC0xLjM4NjkwNyAxLjM4NjkwNy0xLjM4NjkwN2g1Ljg5NDM1N2MuNjkzNDU0IDAgMS4zODY5MDcuNTc3ODc4IDEuMzg2OTA3IDEuMzg2OTA3djUyLjU4NjkwOGMwIDkuMTMwNDc0LTQuOTY5NzUxIDE0LjQ0Njk1Mi0xMy42Mzc5MjMgMTQuNDQ2OTUyLTIuNjU4MjM5IDAtNC43Mzg2IDAtMTAuNjMyOTU3LTIuODg5MzlsLTEyLjEzNTQ0LTYuOTM0NTM3Yy0zLjAwNDk2Ni0xLjczMzYzNS00Ljg1NDE3Ni00Ljk2OTc1Mi00Ljg1NDE3Ni04LjQzNzAyMXYtNTMuMjgwMzYxYzAtMy40NjcyNjggMS44NDkyMS02LjcwMzM4NiA0Ljg1NDE3Ni04LjQzNzAybDQ2LjExNDY3Mi0yNi42OTc5NjljMi44ODkzOTEtMS42MTgwNTggNi44MTg5NjItMS42MTgwNTggOS43MDgzNTMgMGw0Ni4xMTQ2NzIgMjYuNjk3OTY5YzMuMDA0OTY2IDEuNzMzNjM0IDQuODU0MTc2IDQuOTY5NzUyIDQuODU0MTc2IDguNDM3MDJ2NTMuMjgwMzYxYzAgMy40NjcyNjktMS44NDkyMSA2LjcwMzM4Ni00Ljg1NDE3NiA4LjQzNzAyMWwtNDYuMTE0NjcyIDI2LjY5Nzk2OGMtMS41MDI0ODQuNjkzNDU0LTMuMjM2MTE4IDEuMDQwMTgxLTQuODU0MTc3IDEuMDQwMTgxem0xNC4yMTU4MDItMzYuNjM3NDcyYy0yMC4yMjU3MzQgMC0yNC4zODY0NTYtOS4yNDYwNS0yNC4zODY0NTYtMTcuMTA1MTkyIDAtLjY5MzQ1NC41Nzc4NzgtMS4zODY5MDcgMS4zODY5MDctMS4zODY5MDdoNi4wMDk5MzNjLjY5MzQ1MyAwIDEuMjcxMzMxLjQ2MjMwMiAxLjI3MTMzMSAxLjE1NTc1Ni45MjQ2MDUgNi4xMjU1MDggMy41ODI4NDUgOS4xMzA0NzQgMTUuODMzODYgOS4xMzA0NzQgOS43MDgzNTMgMCAxMy44NjkwNzUtMi4xOTU5MzcgMTMuODY5MDc1LTcuMzk2ODQgMC0zLjAwNDk2Ni0xLjE1NTc1Ni01LjIwMDkwMy0xNi4yOTYxNjMtNi43MDMzODYtMTIuNTk3NzQyLTEuMjcxMzMyLTIwLjQ1Njg4NC00LjA0NTE0Ny0yMC40NTY4ODQtMTQuMTAwMjI2IDAtOS4zNjE2MjUgNy44NTkxNDItMTQuOTA5MjU1IDIxLjAzNDc2My0xNC45MDkyNTUgMTQuNzkzNjc5IDAgMjIuMDc0OTQzIDUuMDg1MzI4IDIyLjk5OTU0OCAxNi4xODA1ODcgMCAuMzQ2NzI3LS4xMTU1NzYuNjkzNDU0LS4zNDY3MjcgMS4wNDAxODEtLjIzMTE1MS4yMzExNTEtLjU3Nzg3OC40NjIzMDItLjkyNDYwNS40NjIzMDJoLTYuMDA5OTMyYy0uNTc3ODc4IDAtMS4xNTU3NTYtLjQ2MjMwMi0xLjI3MTMzMi0xLjA0MDE4LTEuMzg2OTA3LTYuMzU2NjU5LTQuOTY5NzUyLTguNDM3MDIxLTE0LjQ0Njk1Mi04LjQzNzAyMS0xMC42MzI5NTggMC0xMS45MDQyODkgMy42OTg0Mi0xMS45MDQyODkgNi40NzIyMzUgMCAzLjM1MTY5MyAxLjUwMjQ4MyA0LjM5MTg3NCAxNS44MzM4NiA2LjI0MTA4NCAxNC4yMTU4MDEgMS44NDkyMSAyMC45MTkxODcgNC41MDc0NDkgMjAuOTE5MTg3IDE0LjQ0Njk1Mi0uMTE1NTc2IDEwLjE3MDY1NS04LjQzNzAyIDE1Ljk0OTQzNi0yMy4xMTUxMjQgMTUuOTQ5NDM2eiIvPjxwYXRoIGZpbGw9IiMzMzMiIGQ9Im0xMTAuMDI3OTkxIDEwNC43MTE1MTJjMC0yLjA4MDM2MS0xLjE1NTc1Ni00LjA0NTE0Ni0zLjAwNDk2Ni01LjA4NTMyNjlsLTQ5LjAwNDA2MzQtMjguMjAwNDUxNWMtLjgwOTAyOTMtLjQ2MjMwMjQtMS43MzM2MzQzLS42OTM0NTM3LTIuNjU4MjM5My0uODA5MDI5M2gtLjQ2MjMwMjRjLS45MjQ2MDUgMC0xLjg0OTIxLjM0NjcyNjktMi42NTgyMzkzLjgwOTAyOTNsLTQ5LjAwNDA2MzIyIDI4LjIwMDQ1MTVjLTEuODQ5MjA5OTMgMS4wNDAxODA5LTMuMDA0OTY2MTQgMy4wMDQ5NjU5LTMuMDA0OTY2MTQgNS4wODUzMjY5bC4xMTU1NzU2MiA3NS44MTc2MDhjMCAxLjA0MDE4LjU3Nzg3ODExIDIuMDgwMzYxIDEuNTAyNDgzMDcgMi41NDI2NjMuOTI0NjA0OTcuNTc3ODc4IDIuMDgwMzYxMTguNTc3ODc4IDIuODg5MzkwNTIgMGwyOS4xMjUwNTY0NS0xNi42NDI4ODljMS44NDkyMDk5LTEuMDQwMTgxIDMuMDA0OTY2MS0zLjAwNDk2NiAzLjAwNDk2NjEtNS4wODUzMjd2LTM1LjQ4MTcxNmMwLTIuMDgwMzYxIDEuMTU1NzU2Mi00LjA0NTE0NyAzLjAwNDk2NjItNS4wODUzMjdsMTIuMzY2NTkxNC03LjE2NTY4OWMuOTI0NjA1LS41Nzc4NzggMS45NjQ3ODU1LS44MDkwMjkgMy4wMDQ5NjYxLS44MDkwMjlzMi4wODAzNjEyLjIzMTE1MSAyLjg4OTM5MDUuODA5MDI5bDEyLjM2NjU5MTUgNy4xNjU2ODljMS44NDkyMDk5IDEuMDQwMTggMy4wMDQ5NjYxIDMuMDA0OTY2IDMuMDA0OTY2MSA1LjA4NTMyN3YzNS40ODE3MTZjMCAyLjA4MDM2MSAxLjE1NTc1NjIgNC4wNDUxNDYgMy4wMDQ5NjYxIDUuMDg1MzI3bDI5LjEyNTA1NjEgMTYuNjQyODg5Yy45MjQ2MDUuNTc3ODc4IDIuMDgwMzYyLjU3Nzg3OCAzLjAwNDk2NyAwIC45MjQ2MDQtLjQ2MjMwMiAxLjUwMjQ4My0xLjUwMjQ4MyAxLjUwMjQ4My0yLjU0MjY2M3oiLz48cGF0aCBmaWxsPSIjMzMzIiBkPSJtMzQ1LjU3MTEwNi4zNDY3MjY4NmMtLjkyNDYwNS0uNDYyMzAyNDgtMi4wODAzNjEtLjQ2MjMwMjQ4LTIuODg5MzkgMC0uOTI0NjA1LjU3Nzg3ODExLTEuNTAyNDgzIDEuNTAyNDgzMDctMS41MDI0ODMgMi41NDI2NjM2NnY3NS4xMjQxNTM0OGMwIC42OTM0NTM3LS4zNDY3MjcgMS4zODY5MDc1LTEuMDQwMTgxIDEuODQ5MjEtLjY5MzQ1NC4zNDY3MjY4LTEuMzg2OTA4LjM0NjcyNjgtMi4wODAzNjEgMGwtMTIuMjUxMDE2LTcuMDUwMTEyOWMtMS44NDkyMS0xLjA0MDE4MDYtNC4wNDUxNDctMS4wNDAxODA2LTUuODk0MzU3IDBsLTQ5LjAwNDA2MyAyOC4zMTYwMjY5Yy0xLjg0OTIxIDEuMDQwMTgxLTMuMDA0OTY2IDMuMDA0OTY2LTMuMDA0OTY2IDUuMDg1MzI3djU2LjUxNjQ3OWMwIDIuMDgwMzYxIDEuMTU1NzU2IDQuMDQ1MTQ3IDMuMDA0OTY2IDUuMDg1MzI3bDQ5LjAwNDA2MyAyOC4zMTYwMjdjMS44NDkyMSAxLjA0MDE4MSA0LjA0NTE0NyAxLjA0MDE4MSA1Ljg5NDM1NyAwbDQ5LjAwNDA2My0yOC4zMTYwMjdjMS44NDkyMS0xLjA0MDE4IDMuMDA0OTY2LTMuMDA0OTY2IDMuMDA0OTY2LTUuMDg1MzI3di0xNDAuODg2NjgxN2MwLTIuMTk1OTM2OC0xLjE1NTc1Ni00LjE2MDcyMjMtMy4wMDQ5NjYtNS4yMDA5MDI5em0tNC41MDc0NDkgMTQzLjc3NjA3MjE0YzAgLjU3Nzg3OC0uMjMxMTUxIDEuMDQwMTgxLS42OTM0NTQgMS4yNzEzMzJsLTE2Ljc1ODQ2NSA5LjcwODM1MmMtLjQ2MjMwMi4yMzExNTEtMS4wNDAxOC4yMzExNTEtMS41MDI0ODMgMGwtMTYuNzU4NDY1LTkuNzA4MzUyYy0uNDYyMzAyLS4yMzExNTEtLjY5MzQ1NC0uODA5MDI5LS42OTM0NTQtMS4yNzEzMzJ2LTE5LjQxNjcwNGMwLS41Nzc4NzguMjMxMTUyLTEuMDQwMTgxLjY5MzQ1NC0xLjI3MTMzMmwxNi43NTg0NjUtOS43MDgzNTJjLjQ2MjMwMy0uMjMxMTUxIDEuMDQwMTgxLS4yMzExNTEgMS41MDI0ODMgMGwxNi43NTg0NjUgOS43MDgzNTJjLjQ2MjMwMy4yMzExNTEuNjkzNDU0LjgwOTAyOS42OTM0NTQgMS4yNzEzMzJ6Ii8+PGcgdHJhbnNmb3JtPSJ0cmFuc2xhdGUoNDAxLjA0NzQwNCA3MC41MDExMjkpIj48cGF0aCBmaWxsPSIjMzMzIiBkPSJtMTA3LjYwMDkwMyA1My43NDI2NjM3YzEuODQ5MjEtMS4wNDAxODA2IDIuODg5MzktMy4wMDQ5NjYyIDIuODg5MzktNS4wODUzMjc0di0xMy43NTM0OTg4YzAtMi4wODAzNjEyLTEuMTU1NzU2LTQuMDQ1MTQ2OC0yLjg4OTM5LTUuMDg1MzI3M2wtNDguNjU3MzM2NC0yOC4yMDA0NTE1MWMtMS44NDkyMDk5LTEuMDQwMTgwNTktNC4wNDUxNDY3LTEuMDQwMTgwNTktNS44OTQzNTY3IDBsLTQ5LjAwNDA2MzE3IDI4LjMxNjAyNzExYy0xLjg0OTIwOTk0IDEuMDQwMTgwNi0zLjAwNDk2NjE0IDMuMDA0OTY2MS0zLjAwNDk2NjE0IDUuMDg1MzI3M3Y1Ni41MTY0Nzg1YzAgMi4wODAzNjEyIDEuMTU1NzU2MiA0LjA0NTE0NjggMy4wMDQ5NjYxNCA1LjA4NTMyNzRsNDguNjU3MzM2MzcgMjcuNzM4MTQ5YzEuODQ5MjA5OSAxLjA0MDE4MSA0LjA0NTE0NjcgMS4wNDAxODEgNS43Nzg3ODEgMGwyOS40NzE3ODMzLTE2LjQxMTczOGMuOTI0NjA1LS40NjIzMDMgMS41MDI0ODMxLTEuNTAyNDgzIDEuNTAyNDgzMS0yLjU0MjY2NCAwLTEuMDQwMTgtLjU3Nzg3ODEtMi4wODAzNjEtMS41MDI0ODMxLTIuNTQyNjY0bC00OS4yMzUyMTQ0LTI4LjMxNjAyNjZjLS45MjQ2MDUtLjU3Nzg3ODEtMS41MDI0ODMxLTEuNTAyNDgzMS0xLjUwMjQ4MzEtMi41NDI2NjM3di0xNy42ODMwNjk5YzAtMS4wNDAxODA2LjU3Nzg3ODEtMi4wODAzNjEyIDEuNTAyNDgzMS0yLjU0MjY2MzdsMTUuMzcxNTU3NS04Ljc4Mzc0NzJjLjkyNDYwNS0uNTc3ODc4MSAyLjA4MDM2MTItLjU3Nzg3ODEgMy4wMDQ5NjYyIDBsMTUuMzcxNTU3NSA4Ljc4Mzc0NzJjLjkyNDYwNS41Nzc4NzgxIDEuNTAyNDgzMSAxLjUwMjQ4MzEgMS41MDI0ODMxIDIuNTQyNjYzN3YxMy44NjkwNzQ1YzAgMS4wNDAxODA1LjU3Nzg3ODEgMi4wODAzNjExIDEuNTAyNDgzMSAyLjU0MjY2MzYuOTI0NjA0OS41Nzc4NzgxIDIuMDgwMzYxMS41Nzc4NzgxIDMuMDA0OTY2MSAweiIvPjxwYXRoIGZpbGw9IiM1MzllNDMiIGQ9Im01NS4yNDUxNDY3IDUxLjA4NDQyNDRjLjM0NjcyNjktLjIzMTE1MTMuODA5MDI5NC0uMjMxMTUxMyAxLjE1NTc1NjIgMGw5LjM2MTYyNTMgNS40MzIwNTQyYy4zNDY3MjY5LjIzMTE1MTIuNTc3ODc4MS41Nzc4NzgxLjU3Nzg3ODEgMS4wNDAxODA1djEwLjg2NDEwODRjMCAuNDYyMzAyNS0uMjMxMTUxMi44MDkwMjkzLS41Nzc4NzgxIDEuMDQwMTgwNmwtOS4zNjE2MjUzIDUuNDMyMDU0MmMtLjM0NjcyNjguMjMxMTUxMi0uODA5MDI5My4yMzExNTEyLTEuMTU1NzU2MiAwbC05LjM2MTYyNTMtNS40MzIwNTQyYy0uMzQ2NzI2OC0uMjMxMTUxMy0uNTc3ODc4MS0uNTc3ODc4MS0uNTc3ODc4MS0xLjA0MDE4MDZ2LTEwLjg2NDEwODRjMC0uNDYyMzAyNC4yMzExNTEzLS44MDkwMjkzLjU3Nzg3ODEtMS4wNDAxODA1eiIvPjwvZz48ZyB0cmFuc2Zvcm09InRyYW5zbGF0ZSgxMzQuMDY3NzIgNzAuNTAxMTI5KSI+PHVzZSB4bGluazpocmVmPSIjYyIgZmlsbD0idXJsKCNiKSIvPjxnIG1hc2s9InVybCgjaykiPjxwYXRoIGQ9Im01MS44OTM0NTM3IDEuODQ5MjA5OTMtNDguNzcyOTExOTQgMjguMDg0ODc1ODdjLTEuODQ5MjA5OTMgMS4wNDAxODA2LTMuMTIwNTQxNzYgMy4wMDQ5NjYxLTMuMTIwNTQxNzYgNS4wODUzMjczdjU2LjI4NTMyNzNjMCAxLjM4NjkwNzUuNTc3ODc4MSAyLjY1ODIzOTMgMS41MDI0ODMwNyAzLjY5ODQxOTlsNTQuNzgyODQ0MjMtOTMuODQ3NDA0MDljLTEuMzg2OTA3NC0uMjMxMTUxMjQtMy4wMDQ5NjYxLS4xMTU1NzU2Mi00LjM5MTg3MzYuNjkzNDUzNzJ6Ii8+PHBhdGggZD0ibTU2LjYzMjA1NDIgMTI1LjA1MjgyMmMuNDYyMzAyNS0uMTE1NTc2LjkyNDYwNDktLjM0NjcyNyAxLjM4NjkwNzQtLjU3Nzg3OGw0OC43NzI5MTI0LTI4LjA4NDg3NjNjMS44NDkyMS0xLjA0MDE4MDYgMy4wMDQ5NjYtMy4wMDQ5NjYxIDMuMDA0OTY2LTUuMDg1MzI3M3YtNTYuMjg1MzI3M2MwLTEuNTAyNDgzMS0uNjkzNDU0LTMuMDA0OTY2MS0xLjczMzYzNS00LjA0NTE0Njd6Ii8+PHBhdGggZmlsbD0idXJsKCNkKSIgZD0ibTEwNi42NzYyOTggMjkuOTM0MDg1OC00OC44ODg0ODc2LTI4LjA4NDg3NTg3Yy0uNDYyMzAyNS0uMjMxMTUxMjQtMS4wNDAxODA2LS40NjIzMDI0OC0xLjUwMjQ4MzEtLjU3Nzg3ODFsLTU0Ljc4Mjg0NDIzIDkzLjg0NzQwNDA3Yy40NjIzMDI0OC41Nzc4NzgxIDEuMDQwMTgwNTkgMS4wNDAxODA2IDEuNjE4MDU4NjkgMS4zODY5MDc0bDQ4Ljg4ODQ4NzU0IDI4LjA4NDg3NTdjMS4zODY5MDc1LjgwOTAzIDMuMDA0OTY2MiAxLjA0MDE4MSA0LjUwNzQ0OTMuNTc3ODc4bDUxLjQzMTE1MTQtOTQuMDc4NTU1Yy0uMzQ2NzI3LS40NjIzMDI1LS44MDkwMy0uODA5MDI5NC0xLjI3MTMzMi0xLjE1NTc1NjJ6Ii8+PC9nPjxnIG1hc2s9InVybCgjaykiPjxnIHRyYW5zZm9ybT0idHJhbnNsYXRlKDAgLTkuMjQ2MDUpIj48cGF0aCBmaWxsPSJub25lIiBkPSJtMTA5Ljc5Njg0IDEwMC41NTA3OXYtNTYuMjg1MzI3MmMwLTIuMDgwMzYxMi0xLjI3MTMzMi00LjA0NTE0NjgtMy4xMjA1NDItNS4wODUzMjc0bC00OC44ODg0ODc2LTI4LjA4NDg3NThjLS41Nzc4NzgxLS4zNDY3MjY5LTEuMTU1NzU2Mi0uNTc3ODc4MS0xLjg0OTIwOTktLjY5MzQ1MzdsNTMuNTExNTEyNSA5MS40MjAzMTYxYy4yMzExNTEtLjM0NjcyNy4zNDY3MjctLjgwOTAyOS4zNDY3MjctMS4yNzEzMzJ6Ii8+PHBhdGggZmlsbD0ibm9uZSIgZD0ibTMuMTIwNTQxNzYgMzkuMTgwMTM1NGMtMS44NDkyMDk5MyAxLjA0MDE4MDYtMy4xMjA1NDE3NiAzLjAwNDk2NjItMy4xMjA1NDE3NiA1LjA4NTMyNzR2NTYuMjg1MzI3MmMwIDIuMDgwMzYxIDEuMzg2OTA3NDUgNC4wNDUxNDcgMy4xMjA1NDE3NiA1LjA4NTMyN2w0OC44ODg0ODc1NCAyOC4wODQ4NzZjMS4xNTU3NTYzLjY5MzQ1NCAyLjQyNzA4ODEuOTI0NjA1IDMuODEzOTk1NS42OTM0NTRsLTUyLjM1NTc1NjE4LTk1LjM0OTg4NzJ6Ii8+PGcgZmlsbC1ydWxlPSJldmVub2RkIj48cGF0aCBmaWxsPSJ1cmwoI2YpIiBkPSJtNTAuMzkwOTcwNy44MDkwMjkzNS0uNjkzNDUzOC4zNDY3MjY4NmguOTI0NjA1eiIvPjxwYXRoIGZpbGw9InVybCgjZykiIGQ9Im0xMDYuNzkxODc0IDEwNS42MzYxMTdjMS4zODY5MDctLjgwOTAyOSAyLjQyNzA4OC0yLjE5NTkzNiAyLjg4OTM5LTMuNjk4NDE5bC01My42MjcwODc5LTkxLjUzNTg5MjFjLTEuMzg2OTA3NS0uMjMxMTUxMy0yLjg4OTM5MDUtLjExNTU3NTctNC4xNjA3MjI0LjY5MzQ1MzdsLTQ4LjU0MTc2MDcgMjcuOTY5MzAwMiA1Mi4zNTU3NTYyIDk1LjQ2NTQ2MzJjLjY5MzQ1MzctLjExNTU3NiAxLjUwMjQ4MzEtLjM0NjcyNyAyLjE5NTkzNjgtLjY5MzQ1NHoiLz48cGF0aCBmaWxsPSJ1cmwoI2gpIiBkPSJtMTExLjI5OTMyMyAxMDQuNzExNTEyLS4zNDY3MjctLjU3Nzg3OHYuODA5MDN6Ii8+PHBhdGggZmlsbD0idXJsKCNpKSIgZD0ibTEwNi43OTE4NzQgMTA1LjYzNjExNy00OC43NzI5MTI0IDI4LjA4NDg3NmMtLjY5MzQ1MzcuMzQ2NzI3LTEuMzg2OTA3NC41Nzc4NzgtMi4xOTU5MzY4LjY5MzQ1NGwuOTI0NjA1IDEuNzMzNjM0IDU0LjA4OTM5MDItMzEuMzIwOTkzdi0uNjkzNDU0bC0xLjM4NjkwNy0yLjMxMTUxMmMtLjIzMTE1MSAxLjYxODA1OS0xLjI3MTMzMiAzLjAwNDk2Ni0yLjY1ODIzOSAzLjgxMzk5NXoiLz48cGF0aCBmaWxsPSJ1cmwoI2opIiBkPSJtMTA2Ljc5MTg3NCAxMDUuNjM2MTE3LTQ4Ljc3MjkxMjQgMjguMDg0ODc2Yy0uNjkzNDUzNy4zNDY3MjctMS4zODY5MDc0LjU3Nzg3OC0yLjE5NTkzNjguNjkzNDU0bC45MjQ2MDUgMS43MzM2MzQgNTQuMDg5MzkwMi0zMS4zMjA5OTN2LS42OTM0NTRsLTEuMzg2OTA3LTIuMzExNTEyYy0uMjMxMTUxIDEuNjE4MDU5LTEuMjcxMzMyIDMuMDA0OTY2LTIuNjU4MjM5IDMuODEzOTk1eiIvPjwvZz48L2c+PC9nPjwvZz48L2c+PC9zdmc+" vertex="1" parent="1">
          <mxGeometry x="404.18" y="605" width="81.63" height="50" as="geometry" />
        </mxCell>
        <mxCell id="yHfxAZi71i5f-YkpnASW-20" value="" style="shape=image;verticalLabelPosition=bottom;verticalAlign=top;imageAspect=0;aspect=fixed;image=data:image/svg+xml,PHN2ZyB4bWxucz0iaHR0cDovL3d3dy53My5vcmcvMjAwMC9zdmciIHZpZXdCb3g9IjAgMCAxMjggMTI4Ij48ZyBmaWxsLXJ1bGU9ImV2ZW5vZGQiIGNsaXAtcnVsZT0iZXZlbm9kZCI+PHBhdGggZmlsbD0iIzk0Nzk1ZCIgZD0ibTg3LjI1OSAxMDAuMTM5Yy4xNjktLjMyNS4zMzEtLjYxMi40NjktLjkwOS4wODctLjE5LjIyMS0uMjI4LjQxLS4yMjMgMS4xMzMuMDMyIDIuMjY2LjA2NyAzLjQuMDc4Ljk2My4wMSAxLjkyOC0uMDA4IDIuODkyLS4wMTkgMS4wODYtLjAxMyAyLjE3Mi0uMDcgMy4yNTctLjAzOSAxLjQ0NS4wNDIgMi44NTMuMzI1IDQuMTYuOTY4IDEuNTYxLjc2OSAyLjc0MiAxLjk0IDMuNTQ3IDMuNDgzLjUxNC45ODUuODEyIDIuMDMuOTMxIDMuMTQuMTcyIDEuNjA4LjA1OSAzLjE3OS0uNDUxIDQuNzE3LS42MzIgMS45MDYtMS44MzIgMy4zNjUtMy40OTkgNC40NTgtMS4yODMuODQxLTIuNjkgMS4zMzgtNC4xOTggMS42MjItMS41OTYuMzAxLTMuMTk3LjIwNC00Ljc5OC4yMDktMS43NTYuMDA3LTMuNTExLS4wMzEtNS4yNjctLjA1MS0uMzA3LS4wMDMtLjM1MS0uMDYxLS4yNy0uMzU0bC4wNzUtLjI3Yy4xNzEtLjUzOC4yNjMtLjU2Mi44MDktLjY1Mi4zNzgtLjA2MS43Ny0uMjAzIDEuMDg3LS40MTMuMTg0LS4xMjIuMjYtLjQ0LjMzMi0uNjg1LjA2Mi0uMjE0LjA2NS0uNDQ5LjA2Ny0uNjc1LjAyNS0zLjQyNS4wNTEtNi44NDkuMDY1LTEwLjI3Mi4wMDMtLjg2NS0uMDE3LTEuNzMyLS4wNjUtMi41OTYtLjAzNC0uNjA1LS4zNTctMS4wMTktMS4wNzctMS4xNjItLjU2LS4xMTEtMS4xMjQtLjE5Ny0xLjY4Ny0uMjk2em0xNi4wNzYgOC4yOTNjLS4wNzYtLjY4Mi0uMTEzLTEuMzctLjIzNS0yLjA0Mi0uMjkyLTEuNjEzLS45OTgtMy4wMTgtMi4yMzgtNC4xMTktMi4wMDUtMS43NzktNC40MTktMi4wNTMtNi45NDktMS44NDEtLjU3Ni4wNDgtLjcuMjQ1LS43MDkuODM3LS4wMTQuODQtLjAyOCAxLjY4LS4wMjkgMi41Mi0uMDA0IDIuNjY0LS4wMDQgNS4zMjggMCA3Ljk5Mi4wMDEuNzU4LjAwOSAxLjUxNi4wMzEgMi4yNzIuMDI0Ljc3NC4zMDUgMS40MjkgMS4wNjMgMS43MjkgMS4xOTUuNDczIDIuNDUyLjUyOSAzLjcwNi4zMzYgMi4wMDMtLjMwNyAzLjQwNC0xLjQ3NCA0LjM0NC0zLjIyMy43NDQtMS4zODguOTU0LTIuOTAzIDEuMDE2LTQuNDYxem00Ljg2OSA5LjA3MWMtLjAyNC0uNDE1LjE0Ni0uNzU4LjM1Ni0xLjA3My4wNTctLjA4NS4yNTMtLjA4MS4zODgtLjEwOGwxLjE0Ni0uMjI3Yy40MDUtLjA4Ni42MTgtLjM1OC42NzUtLjc1NS4wMzgtLjI2Mi4wNzQtLjUyNy4wNzctLjc5Mi4wMjUtMi4wOTcuMDQ5LTQuMTk0LjA1OS02LjI5MS4wMS0yLjEuMDAyLTQuMi4wMDItNi4zbC0uMDA5LS40MDFjLS4wNDEtLjY3NS0uMzY3LTEuMDI1LTEuMDM3LTEuMTI0bC0xLjQ1My0uMjIxYy0uMTc5LS4wMjQtLjI0NC0uMTEtLjE3OS0uMjY5LjExMi0uMjcxLjIxOS0uNTUyLjM3Ny0uNzk2LjA1OS0uMDkuMjU4LS4xMjUuMzkyLS4xMjIuNjk0LjAxIDEuMzg4LjA2MiAyLjA4Mi4wNjFsNi4wNDEtLjAzNmMxLjE2NC0uMDAxIDIuMjg4LjIwMiAzLjMzMi43NTkgMS4xNDkuNjEyIDEuNzkyIDEuNTU5IDEuOTc2IDIuODQ5LjE5MiAxLjM1NS0uMjE5IDIuNDk3LTEuMjA5IDMuNDA0LS40MDcuMzc0LS45MzQuNjE4LTEuNDA2LjkyMmwtLjE1NC4wOTZjLjQzOC4xNjEuODU1LjMgMS4yNjEuNDY2IDEuMTg4LjQ4NyAyLjEzMyAxLjI0OCAyLjYzMyAyLjQ2My4zOTUuOTU5LjM5NSAxLjk1OS4xNjEgMi45NTMtLjM2NCAxLjU1Ni0xLjM4OSAyLjU5MS0yLjcyMiAzLjM3NC0xLjI1MS43MzUtMi42MDUgMS4xNjMtNC4wNDcgMS4yMzUtMS4zMy4wNjctMi42NjYuMDQyLTMuOTk5LjA1N2wtLjc3Mi4wMDRjLTEuMjg0LS4wMjktMi41NjktLjA2Mi0zLjg1NC0uMDk2em01LjUzNy02LjA4OWguMDEzYzAgLjY1OC0uMDA5IDEuMzE2LjAwMyAxLjk3NC4wMDguNDI2LS4wMDcuODY0LjA4NSAxLjI3NC4xMzguNjEzLjQxOCAxLjE2NiAxLjEwNiAxLjM0Mi45MjkuMjM5IDEuODc4LjI4NyAyLjgxOC4xMjQgMS4xNzctLjIwNSAyLjExNi0uNzk1IDIuNjMxLTEuOTE2LjM4Mi0uODMzLjQzOS0xLjcxNi4zMDgtMi42MTgtLjE3NC0xLjE4OC0uODA1LTIuMDUtMS44NTQtMi42MTUtLjY4OC0uMzcxLTEuNDIyLS41OTgtMi4yMDQtLjYyOC0uODc2LS4wMzMtMS43NTMtLjAzNS0yLjYyOS0uMDYyLS4yNDYtLjAwNy0uMjguMTE4LS4yNzkuMzIuMDA1LjkzNC4wMDIgMS44NjkuMDAyIDIuODA1em0xLjg2NS00LjQ3NWMuNDc5LS4wMjQgMS4wMjEtLjAzMSAxLjU2LS4wODUgMS4wMzItLjEwMyAxLjc1OS0uNjIyIDIuMTM4LTEuNjA5LjE5My0uNTAxLjE4NS0xLjAxNy4xOS0xLjUzOC4wMTUtMS4zNTctLjc3Ny0yLjQ2OS0yLjA2Ni0yLjkyOS0uOTk1LS4zNTUtMi4wMjEtLjM2MS0zLjA1My0uMzMzLS40MTguMDExLS42MDUuMTk0LS42MTEuNjE1bC0uMDYyIDUuNDg5Yy0uMDAzLjIxOC4wOTEuMzEyLjMwMy4zMTl6Ii8+PHBhdGggZmlsbD0iIzUwMzgyYiIgZD0ibTEwLjU0MyAxMTYuNDQ4LS4wNzMuOTQ0Yy0uNjggMC0xLjMwNy0uMDA1LTEuOTM0LjAwMi0xLjE4MS4wMTItMi4zNjIuMDMxLTMuNTQ0LjA0OGwtLjExNC4wMDdjLS4xNjktLjAyLS40NzYtLjAyLS40ODQtLjA3LS4wNS0uMjgxLS4wMzQtLjU3Ni0uMDIxLS44NjcuMDAxLS4wMzMuMTE2LS4wNzUuMTgzLS4wOTFsLjkxOS0uMjA1Yy41NzMtLjE0OS43NzUtLjM5Ni44MDItLjk4OC4wMzEtLjY2Ny4wNjItMS4zMzUuMDY1LTIuMDAyLjAwOS0xLjY0Mi0uMDAxLTMuMjgyLjAwNi00LjkyNC4wMDEtLjM4NC0uMTMyLS42Ny0uNDktLjgyNi0uNDI2LS4xODgtLjg1NC0uMzcyLTEuMjg1LS41NDYtLjIwNC0uMDgyLS40NjktLjEyNy0uNDQ1LS40MDEuMDI0LS4yNzkuMjgxLS4zNTIuNTIzLS40MDcgMS4wMDItLjIyOSAyLjAwNS0uNDUyIDMuMDA0LS42OTYuMzIyLS4wNzkuNjMtLjIxMiAxLjAxNS0uMzQ2LjAyLjIwOC4wNTcuNDA2LjA1My42MDRsLS4wNTkuOTQxYy0uMDAxLjEwNi4wNTQuMjQ4LjEzMy4zMDcuMDQ4LjAzNy4yMDktLjAzLjI4OS0uMDkyLjg1NC0uNjUgMS43NTgtMS4yMTEgMi43ODktMS41MzggMS41OTctLjUwNyAyLjk2OC0uMDM3IDMuOTI4IDEuMzQuMzM4LjQ4NS4zMzkuNDg1LjgwOC4xNDYuODA1LS41ODUgMS42NDctMS4xMDEgMi41ODktMS40NDEgMi4wNjgtLjc0NyA0LjA1NS4yMDEgNC43NzQgMi4yODQuMjYyLjc1Ni4zNjIgMS41MzcuMzYgMi4zMzVsLS4wMTkgNS4yOThjLS4wMDEuNDM3LjE0NC42ODYuNTYuODIyLjQ2Ny4xNTMuOTUxLjI1OCAxLjQ3Ny4zOTZsLS4xMjIuOTExYy0uNTk4IDAtMS4xNDgtLjAwNC0xLjY5OC4wMDEtMS4zNDQuMDEyLTIuNjg4LjAxOS00LjAzMS4wNS0uMjM0LjAwNi0uMjk1LS4wNTItLjMwNy0uMjcxLS4wMzktLjcwMS0uMDQ1LS43LjYxNS0uODU4bC4yMjItLjA1N2MuNjQ1LS4xNzYuODYtLjM3NC44NjUtMS4wMjguMDE1LTEuODc4LjA1NC0zLjc2MS0uMDQxLTUuNjM1LS4wOTktMS45NDQtMS42NDItMi45NzktMy41MjYtMi40ODEtLjYxNS4xNjItMS4xNzIuNDQ2LTEuNjkuODE0LS4xNzUuMTI1LS4yMDguMjY5LS4xOTQuNDg4LjA1My44MjguMDg2IDEuNjU3LjA5MyAyLjQ4Ni4wMTIgMS40NTEtLjAwNiAyLjkwMiAwIDQuMzU0LjAwMi41ODguMjAzLjgxMy43ODQuOTQ5bC44NjMuMTk5LjE2LjAzNmMuMDEyLjI3Ni4wMjMuNTUyLjAxLjgyOC0uMDA4LjE3My0uMTQyLjE4OC0uMjkyLjE4NS0uODM5LS4wMjEtMS42NzktLjA0OS0yLjUxOC0uMDQ3LTEuMDIxLjAwMi0yLjA0MS4wMzEtMy4wNjEuMDQ5aC0uMjRjMC0uMjkzLS4wMTQtLjU3My4wMS0uODUyLjAwNS0uMDY3LjEyMy0uMTYxLjIwNC0uMTgybDEuMDA2LS4yMTNjLjQyNy0uMTA1LjYzMS0uMzI0LjY1NS0uNzU4LjExNC0yLjAxLjE5Ni00LjAyMS4wMDctNi4wMy0uMDM3LS4zOS0uMTY0LS43ODYtLjMyNi0xLjE0NS0uNTE1LTEuMTM4LTEuNjc0LTEuNjEzLTMuMDExLTEuMjcxLS42MzUuMTYyLTEuMjA4LjQ1My0xLjc1LjgyLS4yNTYuMTc0LS4zNzguNDA0LS4zNzguNjk1IDAgMi4wMDUuMDA3IDQuMDEuMDEzIDYuMDE0bC4wMTEuNzczYy4wMTIuNTM5LjI0MS44MjMuNzc2LjkzOS4zNDQuMDc4LjY5Mi4xMzEgMS4wODIuMjAzeiIvPjxwYXRoIGZpbGw9IiM0ZjM4MmIiIGQ9Im03MS4wMDEgMTA1LjI4NWMuMTU1Ljc1NC4xNTIgMS40MzItLjQwMiAxLjk0Ni0uNTUuNTExLTEuMjQ2LjMzOS0xLjkyNS4yMjUuMDYzLjM1OC4xMzMuNjYyLjE2Ny45Ny4yNDcgMi4yODktLjczOCAzLjk4OC0yLjg2MSA0Ljk1OS0uODAyLjM2Ni0xLjY1My41MDItMi41MjIuNTcyLS40MzIuMDM0LS44MS4zNjQtLjg1MS43MTktLjA0Mi4zNi4xODQuNzMuNjM2LjgzOC41MzMuMTI3IDEuMDg5LjE2MyAxLjYzNi4yMjYgMS4xNzQuMTM0IDIuMzYxLjE5NSAzLjUyMS40MDUgMS43NTQuMzE2IDIuNzMzIDEuODQ3IDIuNDI0IDMuNjA5LS4yNzUgMS41NjgtMS4xODMgMi43MDktMi40NDkgMy41ODQtMi4xMzMgMS40NzgtNC40NzMgMS45MS02Ljk2NSAxLjE1Ni0xLjQyNS0uNDMyLTIuNDMtMS4zNjktMi43NzctMi44ODUtLjE3NC0uNzU5LjAxMS0xLjQ0Ni41ODItMS45NjEuNjc5LS42MSAxLjQxOC0xLjE1NCAyLjEyOS0xLjczbC4yMy0uMjMxLS4yNjQtLjE4NWMtLjcyNS0uMzQ0LTEuMzA1LS44MTUtMS41My0xLjYzMy0uMDc3LS4yNzcuMDAzLS40NTkuMjM4LS42MDEuNC0uMjQxLjc5OC0uNDg2IDEuMTkzLS43MzUuMTg2LS4xMTYuMzctLjIzNi41NDMtLjM3LjIzNi0uMTguMjE1LS4zMTQtLjA2Ny0uNDE4LS42NTYtLjI0Mi0xLjIzOS0uNTkzLTEuNjkxLTEuMTMzLS43NTUtLjkwMS0uOTY5LTEuOTc0LS45MDctMy4xMDcuMDk3LTEuNzcgMS4wNTgtMi45MzYgMi42Mi0zLjY4NiAxLjg1Ny0uODkxIDMuNzItLjk0NyA1LjYxMy0uMTM1LjcuMyAxLjQzOC4zNjQgMi4xODkuMzEyLjU2MS0uMDQgMS4wNTEtLjI1MiAxLjQ5LS43MTF6bS02Ljg0MyAxMi42ODFjLTEuMzk0LS4wMTItMS44MzEuMTYtMi42NDkuOTkzLS45MTYuOTM0LS45MTEgMi4yMjkuMDAzIDMuMTY3LjY5NC43MTEgMS41NiAxLjA0NCAyLjUyMyAxLjE0NCAxLjEyNS4xMTYgMi4yMzMuMDY5IDMuMjU1LS40OTQgMS4wOS0uNjAzIDEuNjMyLTEuNzIzIDEuMzg3LTIuODUxLS4yMDMtLjkzMS0uODg5LTEuMzU3LTEuNzI0LTEuNjAyLS45NS0uMjc4LTEuOTMyLS4zMzEtMi43OTUtLjM1N3ptLTIuNzM4LTguOTA4Yy4wNTEuMzg3LjA3Mi43NzkuMTU4IDEuMTU4LjIyMy45ODIuNjUgMS44NDUgMS42MjcgMi4yODIgMS4xNDcuNTE1IDIuNjEyLjI5NCAzLjExNC0xLjMxNi4zNDQtMS4xMDMuMzAyLTIuMTk4LS4xMTMtMy4yNzQtLjE4NS0uNDgtLjQ4My0uODg2LS45MS0xLjE4NC0uOTk2LS42OTUtMi43OTMtLjc4Ny0zLjUyNS43NDktLjIzOC40OTktLjMzMSAxLjAzLS4zNTEgMS41ODV6Ii8+PHBhdGggZmlsbD0iIzRmMzcyYiIgZD0ibTQ3LjM1IDEwNS4wMzhjLjAzNy4xNzEuMTExLjM2NS4xMTMuNTYuMDAzLjM3MS0uMDM3Ljc0Mi0uMDU4IDEuMTEzdi4zMjJsLjMxNC0uMjRjLjg2LS43MDggMS43ODQtMS4zMTEgMi44Ni0xLjYzNiAxLjk0Mi0uNTg1IDMuODgyLjQ3OCA0LjUxNSAyLjQ1Ni4yNC43NTIuMzM1IDEuNTI1LjM0NCAyLjMxMS4wMiAxLjc0Ni4wMzIgMy40OTIuMDUgNS4yMzguMDA2LjYyNy4wNzguNzM5LjY3MS45Mi4zMzYuMTAzLjY4My4xNzUgMS4wMy4yMjkuMTkxLjAzLjI3My4xMDUuMjYzLjI5MmwuMDAyLjE3MmMtLjAwNy43MjMtLjA1Ny43NTYtLjc1OC43NTQtMS42NzgtLjAwMy0zLjM1NS4wMDctNS4wMzMuMDIxLS41LjAwNC0uNTAxLjAxOS0uNTUxLS40NzVsLS4wMS0uMjg0Yy4wMzEtLjQyNi4wNDEtLjQyMi40Ni0uNDg0LjI4Mi0uMDQyLjU2Mi0uMTA3LjgzNy0uMTc5LjI4My0uMDczLjQxOS0uMjgyLjQ1Ny0uNTYyLjAxOS0uMTQyLjA0NC0uMjg0LjA0My0uNDI2LS4wMjQtMS45MDguMDA3LTMuODE4LS4wOTctNS43MjMtLjA4NC0xLjU0MS0xLjI2LTIuNDU5LTIuODA3LTIuMzU0LS43NTkuMDUzLTEuNDQ1LjMwNi0yLjA3MS43NDMtLjQxMy4yODktLjQ5Ni43MDYtLjQ5NCAxLjE1NS4wMDggMS43ODQuMDI1IDMuNTY4LjA0NCA1LjM1My4wMDQuMzkxLjAxNS43ODIuMDUyIDEuMTcuMDM5LjQyNC4xODguNTk1LjYwNC42ODcuMzk4LjA4OC44MDQuMTM5IDEuMjI5LjIxbC4wMzYuMzI4Yy4wMTQuNzY1LS4wNjYuODIyLS44MDkuODE5LTEuNzM1LS4wMDctMy40Ny4wMDQtNS4yMDQuMDIzLS4yNzMuMDA0LS4zODktLjA4Mi0uMzgyLS4zNDhsLS4wMDQtLjExNGMtLjA0NS0uNjg5LS4wMjUtLjcxNS42MjctLjgyN2wuMzA4LS4wNjJjLjcwNi0uMTU5Ljg4Ny0uMzQ3Ljg5Ny0xLjA2NC4wMzMtMi4yNzEuMDQ1LTQuNTQxLjA2OC02LjgxMi4wMDMtLjMyNi0uMTItLjU3OS0uNDI0LS43MTQtLjQyNi0uMTg4LS44NTYtLjM2Ny0xLjI4Ny0uNTQ0LS4yMzgtLjA5OC0uNTEtLjE2LS41MTktLjQ4OS0uMDA2LS4yMzIuMjQyLS40MzcuNTgxLS41MDYuNjgxLS4xMzggMS4zNjgtLjI1MyAyLjA0MS0uNDIyLjY3LS4xNjcgMS4zMjgtLjM5MSAyLjA2Mi0uNjExeiIvPjxwYXRoIGZpbGw9IiM0ZjM4MmIiIGQ9Im04NC44NjUgMTEwLjk3Yy0uMDMyIDIuMTIxLS41ODMgMy44MzYtMi4wODMgNS4xMjMtMS45IDEuNjMzLTQuODY0IDIuMTg4LTcuMjg3Ljk2Ny0xLjAzNC0uNTIxLTEuNzk0LTEuMzItMi4yODktMi4zNTctLjc1OS0xLjU5NS0uOTQ5LTMuMjcyLS41NTMtNC45OS4zOTItMS42OTkgMS40MjEtMi45MyAyLjk2MS0zLjcyNyAxLjU4NC0uODE5IDMuMjUyLTEuMTM5IDUuMDExLS43MDkgMi4yMjUuNTQzIDMuODI0IDIuMzU3IDQuMTQyIDQuNjY3LjA1Ny40MDUuMDc5LjgxNS4wOTggMS4wMjZ6bS0yLjU3NyAxLjE0OS0uMDg2LS4wMWMwLS4yLjAxMS0uNC0uMDAyLS42LS4wNzMtMS4yNDYtLjM1My0yLjQzMy0xLjA3NS0zLjQ3Ni0uNjg1LS45ODgtMS42MTgtMS41NzEtMi44MzItMS42NTYtMS4zNTktLjA5Ni0yLjUwMS42NjQtMi45MDIgMi4wNTItLjYwMiAyLjA4NC0uMzk4IDQuMTE1LjY2IDYuMDI0LjQ2MS44MzIgMS4xNDQgMS40NDYgMi4wNTkgMS43NjkgMS43OTMuNjMxIDMuMzgzLS4xODYgMy44NS0yLjAyMi4xNzItLjY3OC4yMjItMS4zODcuMzI4LTIuMDgxeiIvPjxwYXRoIGZpbGw9IiM0ZjM3MmIiIGQ9Im00MC44MTkgMTExLjEzNGMtLjAzNyAxLjUyMi0uMzk2IDIuOTI5LTEuMzM2IDQuMTUyLTEuMDA3IDEuMzEtMi4zOTEgMi4wMS0zLjk2NSAyLjMwNS0xLjg2MS4zNDgtMy42MDkuMDMyLTUuMTA0LTEuMjE3LS43MS0uNTk0LTEuMTk1LTEuMzU1LTEuNTE1LTIuMjIxLS41MjUtMS40Mi0uNjU2LTIuODc1LS4zMzMtNC4zNTguMzQ1LTEuNTg3IDEuMjQxLTIuOCAyLjYzLTMuNjE0IDEuNjA2LS45MzkgMy4zMzktMS4zNTggNS4xOS0uOTM2IDIuMzguNTQ0IDMuNzU0IDIuMDk1IDQuMjYyIDQuNDQzLjEwMi40NzQuMTE2Ljk2NC4xNzEgMS40NDZ6bS0yLjYwNiAxLjAwNC0uMDY5LS4wMXYtLjI4NmMtLjAzOS0xLjM5Ni0uMzEyLTIuNzI2LTEuMTQ1LTMuODg2LS42MTctLjg2MS0xLjQ0My0xLjQwMS0yLjUwMi0xLjU1Mi0xLjcyNi0uMjQ2LTIuODU0Ljc3OC0zLjIyOCAyLjE2OS0uNDg4IDEuODE3LS4zMzUgMy42MTIuNDIgNS4zMzUuNDcxIDEuMDc0IDEuMjE1IDEuOTExIDIuMzU4IDIuMzE3IDEuNzgyLjYzMyAzLjM5Ni0uMjA1IDMuODQ3LTIuMDM0LjE2Ni0uNjY5LjIxNi0xLjM2Ny4zMTktMi4wNTN6Ii8+PHBhdGggZmlsbD0iIzQzOTkzNCIgZD0ibTgyLjM2MiAzMy41NDRjMS4yMjcgMy41NDcgMi4xMDkgNy4xNjggMi40IDEwLjkyLjM2IDQuNjU2LjE5NiA5LjI4LS43ODYgMTMuODU5bC0uMTI2LjM2NmMtLjMwOC4wMDEtLjYyMi0uMDM4LS45MjMuMDA5LTIuNTQzLjQtNS4wODMuODE0LTcuNjI0IDEuMjI2LTIuNjI3LjQyNi01LjI1Ni44MzUtNy44NzggMS4yODktLjkyOS4xNi0yLjA3OS0uMDMxLTIuNDU0IDEuMjUzbC0uMTguMDYxLjEyNy03LjY3OC0uMTI5LTE4LjUyNiAxLjIyNC0uMjFjMi4wMDEtLjMyNyA0LjAwMi0uNjYgNi4wMDYtLjk3OSAyLjM5LS4zNzkgNC43ODItLjc0OSA3LjE3NC0xLjExOSAxLjA1Ni0uMTYyIDIuMTEzLS4zMTMgMy4xNjktLjQ3MXoiLz48cGF0aCBmaWxsPSIjNDVhNTM4IiBkPSJtNjIuMjY1IDg0LjkxMWMtMS4yOTEtMS4xMS0yLjYyNy0yLjE3MS0zLjg2NC0zLjMzOS02LjY1OC02LjI4LTExLjUyOS0xMy42NzMtMTMuOTI4LTIyLjU4Ni0uNjYxLTIuNDUyLTEuMTAxLTQuOTQ1LTEuMjQzLTcuNDc5LS4xLTEuNzc0LS4yNDMtMy41NjMtLjExNy01LjMyOC4zMzMtNC42OTMgMS4wMTItOS4zNDEgMi4zODgtMTMuODYybC4wNzYtLjEwNWMuMTM0LjE3OC4zMjYuMzM2LjM5NC41MzcgMS4zNDQgMy45NTYgMi42NzcgNy45MTYgNC4wMDQgMTEuODc5IDQuMTY5IDEyLjQ1MSA4LjMzMyAyNC45MDUgMTIuNTA5IDM3LjM1NC4wODIuMjQzLjI5My40NDIuNDQ1LjY2MXoiLz48cGF0aCBmaWxsPSIjNDZhMDM3IiBkPSJtODIuMzYyIDMzLjU0NGMtMS4wNTcuMTU3LTIuMTE0LjMwOS0zLjE2OS40NzEtMi4zOTIuMzctNC43ODQuNzQtNy4xNzQgMS4xMTktMi4wMDMuMzE4LTQuMDA0LjY1MS02LjAwNi45NzlsLTEuMjI0LjIxLS4wMS0uNzk4Yy0uMDQxLS42NTYtLjEwOS0xLjMxMi0uMTE4LTEuOTY4bC0uMTM3LTEyLjU1NGMtLjAzMi0yLjYxOS0uMDgtNS4yMzgtLjEzMy03Ljg1Ni0uMDMzLTEuNjI3LS4wNjgtMy4yNTUtLjE0MS00Ljg4LS4wNC0uODczLS4xODEtMS43NDItLjIzNy0yLjYxNS0uMDMzLS41MDIuMDExLTEuMDA4LjAyMi0xLjUxMi42MjQgMS4yMDkgMS4yMzUgMi40MjcgMS44NzYgMy42MjcgMS4wMTMgMS44OTcgMi42MjggMy4yOTUgNC4wODMgNC44MiA1Ljc0NiA2LjAzMSA5LjgyNSAxMy4wMzkgMTIuMzY4IDIwLjk1N3oiLz48cGF0aCBmaWxsPSIjNDA5NDMzIiBkPSJtNjQuNzkyIDYyLjUyNy4xOC0uMDYxYy4zNzUtMS4yODQgMS41MjUtMS4wOTMgMi40NTQtMS4yNTMgMi42MjItLjQ1NCA1LjI1MS0uODYzIDcuODc4LTEuMjg5IDIuNTQxLS40MTEgNS4wODEtLjgyNSA3LjYyNC0xLjIyNi4zMDEtLjA0Ny42MTUtLjAwOC45MjMtLjAwOS0uNDc1IDEuNjk2LS44NDkgMy40MjktMS40NTIgNS4wNzgtLjY4NSAxLjg3LTEuNTEzIDMuNjk2LTIuMzkyIDUuNDg2LTEuMzE0IDIuNjc1LTIuOTUxIDUuMTcxLTQuODUzIDcuNDU4LTEuNDY2IDEuNzYyLTMuMSAzLjM5My00LjczNyA1LjAwMi0uOTA2Ljg4OS0xLjk3MiAxLjYxNC0yLjk2NiAyLjQxNGwtLjI1OC0uMTc2LS45MjctLjc5Mi0uOTU5LTIuMTA0Yy0uNjYxLTIuNDYyLTEuMDA3LTQuOTY4LTEuMDY1LTcuNTE2bC4wMTgtLjQyOC4xMzEtMS44NTRjLjA0My0uNjMzLjEwMS0xLjI2NS4xMjgtMS44OTguMDk2LTIuMjc2LjE4Mi00LjU1NC4yNzMtNi44MzJ6Ii8+PHBhdGggZmlsbD0iIzRmYWE0MSIgZD0ibTY0Ljc5MiA2Mi41MjdjLS4wOSAyLjI3OC0uMTc2IDQuNTU3LS4yNzMgNi44MzUtLjAyNy42MzQtLjA4NCAxLjI2Ni0uMTI4IDEuODk4bC0uNTg0LjIyMWMtMS4yOTgtMy44MjEtMi41OTctNy42MDItMy44NjctMTEuMzkyLTIuMTAxLTYuMjcxLTQuMTc2LTEyLjU1MS02LjI3NC0xOC44MjQtMS42OTMtNS4wNjItMy40MDEtMTAuMTIxLTUuMTE4LTE1LjE3Ni0uMDgxLS4yMzYtLjMxMS0uNDIyLS40NzEtLjYzMWwzLjc0LTYuODc3Yy4xMjkuMjIzLjI5OC40MzIuMzc5LjY3MiAxLjczIDUuMTIgMy40NTcgMTAuMjQxIDUuMTY5IDE1LjM2NyAyLjIyOCA2LjY3IDQuNDQxIDEzLjM0MyA2LjY2NyAyMC4wMTQuMDg5LjI2Ni4yMzUuNTEyLjM3NS44MTFsLjUxMi0uNTk2Yy0uMDQzIDIuNTYtLjA4NSA1LjExOC0uMTI3IDcuNjc4eiIvPjxwYXRoIGZpbGw9IiM0YWE3M2MiIGQ9Im00OC4wNzYgMjUuNDU4Yy4xNjEuMjA5LjM5MS4zOTUuNDcxLjYzMSAxLjcxNyA1LjA1NSAzLjQyNSAxMC4xMTMgNS4xMTggMTUuMTc2IDIuMDk4IDYuMjczIDQuMTczIDEyLjU1MyA2LjI3NCAxOC44MjQgMS4yNyAzLjc5IDIuNTY5IDcuNTcgMy44NjcgMTEuMzkybC41ODQtLjIyMS0uMTMxIDEuODU0LS4xMTkuNDI3Yy0uMjAzIDIuMDI5LS4zNzQgNC4wNjItLjYyMiA2LjA4Ny0uMTI0IDEuMDE1LS4zODkgMi4wMTEtLjU5IDMuMDE1LS4xNTEtLjIxOS0uMzYzLS40MTgtLjQ0NS0uNjYxLTQuMTc3LTEyLjQ0OS04LjM0LTI0LjkwMy0xMi41MDktMzcuMzU0LTEuMzI3LTMuOTYzLTIuNjYxLTcuOTIzLTQuMDA0LTExLjg3OS0uMDY4LS4yMDEtLjI2LS4zNTktLjM5NC0uNTM3eiIvPjxwYXRoIGZpbGw9IiM1N2FlNDciIGQ9Im02NC45MTggNTQuODQ5LS41MTIuNTk2Yy0uMTQtLjI5OS0uMjg2LS41NDUtLjM3NS0uODExLTIuMjI2LTYuNjcxLTQuNDM5LTEzLjM0NC02LjY2Ny0yMC4wMTQtMS43MTItNS4xMjYtMy40MzktMTAuMjQ3LTUuMTY5LTE1LjM2Ny0uMDgxLS4yNC0uMjUtLjQ0OS0uMzc5LS42NzJsNC42MjUtNi4wODRjLjE0Ni4xOTQuMzU0LjM2Ny40MjkuNTg2IDEuMjg0IDMuNzYgMi41NTYgNy41MjMgMy44MjIgMTEuMjg5IDEuMTgyIDMuNTE4IDIuMzQ2IDcuMDQgMy41NDIgMTAuNTUyLjA4LjIzNS4zNTkuNDAxLjU0NS42MDFsLjAxLjc5OHoiLz48cGF0aCBmaWxsPSIjNjBiMjRmIiBkPSJtNjQuNzc5IDM1LjUyNWMtLjE4Ny0uMTk5LS40NjUtLjM2NS0uNTQ1LS42MDEtMS4xOTUtMy41MTItMi4zNi03LjAzNC0zLjU0Mi0xMC41NTItMS4yNjYtMy43NjYtMi41MzgtNy41MjktMy44MjItMTEuMjg5LS4wNzUtLjIxOS0uMjgzLS4zOTItLjQyOS0uNTg2IDEuNTA0LTEuNDczIDIuOTYxLTIuOTk5IDQuNTI2LTQuNDA0IDEuMzkxLTEuMjQ4IDIuNTA5LTIuNTg2IDIuNTYxLTQuNTU5bC4xMS0uMzkzLjM5Ni45OThjLS4wMS41MDQtLjA1NSAxLjAxLS4wMjIgMS41MTIuMDU3Ljg3My4xOTggMS43NDIuMjM3IDIuNjE1LjA3MyAxLjYyNS4xMDggMy4yNTMuMTQxIDQuODguMDUzIDIuNjE4LjEwMSA1LjIzNy4xMzMgNy44NTZsLjEzNyAxMi41NTRjLjAxLjY1Ny4wNzkgMS4zMTMuMTE5IDEuOTY5eiIvPjxwYXRoIGZpbGw9IiNhOWFhODgiIGQ9Im02Mi45MjkgODIuNjQyYy4yMDEtMS4wMDQuNDY2LTIgLjU5LTMuMDE1LjI0OC0yLjAyNC40MTktNC4wNTguNjIyLTYuMDg3bC4wNTEtLjAwOC4wNS4wMDljLjA1OCAyLjU0OC40MDQgNS4wNTQgMS4wNjUgNy41MTYtLjEzNS4xNzgtLjMyNC4zMzUtLjM5Ni41MzUtLjU1NSAxLjU2Ni0xLjA3OSAzLjE0NS0xLjYzNyA0LjcxLS4wNzYuMjE0LS4yOS4zODEtLjQzOS41NjhsLS41NzEtMS45NnoiLz48cGF0aCBmaWxsPSIjYjZiNTk4IiBkPSJtNjIuODM1IDg2Ljg3MWMuMTQ5LS4xODguMzYzLS4zNTQuNDM5LS41NjguNTU4LTEuNTY1IDEuMDgyLTMuMTQ0IDEuNjM3LTQuNzEuMDcxLS4yLjI2MS0uMzU3LjM5Ni0uNTM1bC45NTkgMi4xMDRjLS4xODkuMjY4LS40NTEuNTExLS41NTYuODFsLTEuODM2IDUuMzkyYy0uMDc2LjIxNy0uMzMzLjM2OS0uNTA3LjU1MnoiLz48cGF0aCBmaWxsPSIjYzJjMWE3IiBkPSJtNjMuMzY3IDg5LjkxNWMuMTczLS4xODMuNDMxLS4zMzUuNTA3LS41NTJsMS44MzYtNS4zOTJjLjEwNC0uMjk5LjM2Ny0uNTQyLjU1Ni0uODFsLjkyOC43OTFjLS40NDguNDQzLS42OTcuOTU1LS41NDcgMS42MDJsLS4yODIuOTIzYy0uMTI4LjE1OC0uMzE0LjI5Ni0uMzc3LjQ3Ny0uNjQxIDEuODM2LTEuMjUyIDMuNjgyLTEuODk4IDUuNTE3LS4wODIuMjMyLS4zMDkuNDE1LS40NjguNjIxeiIvPjxwYXRoIGZpbGw9IiNjZWNkYjciIGQ9Im02My42MjEgOTMuMDkxYy4xNi0uMjA2LjM4Ny0uMzg5LjQ2OC0uNjIxLjY0Ni0xLjgzNSAxLjI1OC0zLjY4MSAxLjg5OC01LjUxNy4wNjMtLjE4MS4yNDktLjMxOC4zNzctLjQ3N2wtLjM4OSA0LjIzNmMtLjEwNC4xMi0uMjU0LjIyNS0uMzA0LjM2NGwtMS4yOTQgMy43MDhjLS4wOTEuMjUzLS4yNjUuNDc5LS40MDEuNzE2LS4xMjEtLjE1OC0uMzM3LS4zMTEtLjM0Ny0uNDc1LS4wMzgtLjY0Mi0uMDExLTEuMjg5LS4wMDgtMS45MzR6Ii8+PHBhdGggZmlsbD0iI2RiZGFjNyIgZD0ibTYzLjk3NyA5NS41MDFjLjEzNi0uMjM3LjMxLS40NjMuNDAxLS43MTZsMS4yOTQtMy43MDhjLjA1LS4xNC4yMDEtLjI0NC4zMDQtLjM2NGwuMDEgMi43OC0uOTMxIDIuMzg3eiIvPjxwYXRoIGZpbGw9IiNlYmU5ZGMiIGQ9Im02NS4wNTUgOTUuODguOTMxLTIuMzg3LjE5MiAyLjgyNHoiLz48cGF0aCBmaWxsPSIjY2VjZGI3IiBkPSJtNjYuNjQ2IDg1LjU1NGMtLjE0OS0uNjQ2LjA5OS0xLjE1OC41NDctMS42MDJsLjI1OC4xNzZ6Ii8+PHBhdGggZmlsbD0iIzRmYWE0MSIgZD0ibTY0LjI0MiA3My41NDItLjA1LS4wMDktLjA1MS4wMDguMTE5LS40Mjd6Ii8+PC9nPjwvc3ZnPg==" vertex="1" parent="1">
          <mxGeometry x="310" y="490" width="60" height="60" as="geometry" />
        </mxCell>
        <mxCell id="yHfxAZi71i5f-YkpnASW-21" value="" style="shape=image;verticalLabelPosition=bottom;verticalAlign=top;imageAspect=0;aspect=fixed;image=data:image/svg+xml,PHN2ZyB4bWxuczp4bGluaz0iaHR0cDovL3d3dy53My5vcmcvMTk5OS94bGluayIgeG1sbnM9Imh0dHA6Ly93d3cudzMub3JnLzIwMDAvc3ZnIiB4bWw6c3BhY2U9InByZXNlcnZlIiBzdHlsZT0iZW5hYmxlLWJhY2tncm91bmQ6bmV3IDAgMCAxMjIuODggMTA5LjQzIiB2aWV3Qm94PSIwIDAgMTIyLjg4IDEwOS40MyIgeT0iMHB4IiB4PSIwcHgiIGlkPSJMYXllcl8xIiB2ZXJzaW9uPSIxLjEiPjxzdHlsZSB0eXBlPSJ0ZXh0L2NzcyI+LnN0MHtmaWxsLXJ1bGU6ZXZlbm9kZDtjbGlwLXJ1bGU6ZXZlbm9kZDtmaWxsOiMwMEQ4RkY7fTwvc3R5bGU+PGc+PHBhdGggZD0iTTEyMi44OCw1NC43M2MwLTguMTQtMTAuMTktMTUuODUtMjUuODItMjAuNjRjMy42MS0xNS45MywyLTI4LjYtNS4wNi0zMi42NmMtMS42My0wLjk1LTMuNTMtMS40LTUuNjEtMS40IHY1LjU5YzEuMTUsMCwyLjA4LDAuMjMsMi44NiwwLjY1YzMuNDEsMS45NSw0Ljg4LDkuMzksMy43MywxOC45NmMtMC4yOCwyLjM1LTAuNzMsNC44My0xLjI4LDcuMzZjLTQuOTEtMS4yLTEwLjI3LTIuMTMtMTUuOS0yLjczIGMtMy4zOC00LjYzLTYuODktOC44NC0xMC40Mi0xMi41MkM3My41NCw5Ljc0LDgxLjIsNS41OSw4Ni40MSw1LjU5VjBsMCwwYy02Ljg5LDAtMTUuOSw0LjkxLTI1LjAyLDEzLjQzIEM1Mi4yNyw0Ljk2LDQzLjI2LDAuMSwzNi4zNywwLjF2NS41OWM1LjE4LDAsMTIuODcsNC4xMywyMS4wNCwxMS42N2MtMy41MSwzLjY4LTcuMDEsNy44Ni0xMC4zNCwxMi41IGMtNS42NiwwLjYtMTEuMDIsMS41My0xNS45MywyLjc1Yy0wLjU4LTIuNS0xLTQuOTMtMS4zLTcuMjZjLTEuMTgtOS41NywwLjI4LTE3LjAxLDMuNjYtMTguOTljMC43NS0wLjQ1LDEuNzMtMC42NSwyLjg4LTAuNjVWMC4xMyBsMCwwYy0yLjEsMC00LjAxLDAuNDUtNS42NiwxLjRjLTcuMDQsNC4wNi04LjYyLDE2LjcxLTQuOTgsMzIuNTlDMTAuMTQsMzguOTIsMCw0Ni42MSwwLDU0LjczYzAsOC4xNCwxMC4xOSwxNS44NSwyNS44MiwyMC42NCBjLTMuNjEsMTUuOTMtMiwyOC42LDUuMDYsMzIuNjZjMS42MywwLjk1LDMuNTMsMS40LDUuNjQsMS40YzYuODksMCwxNS45LTQuOTEsMjUuMDItMTMuNDNjOS4xMiw4LjQ3LDE4LjEzLDEzLjMzLDI1LjAyLDEzLjMzIGMyLjEsMCw0LjAxLTAuNDUsNS42Ni0xLjRjNy4wNC00LjA2LDguNjItMTYuNzEsNC45OC0zMi41OUMxMTIuNzQsNzAuNTYsMTIyLjg4LDYyLjg0LDEyMi44OCw1NC43M0wxMjIuODgsNTQuNzN6IE03Mi44Niw1NC43MyBjMC02LjMyLTUuMTItMTEuNDUtMTEuNDUtMTEuNDVjLTYuMzIsMC0xMS40NSw1LjEyLTExLjQ1LDExLjQ1czUuMTIsMTEuNDUsMTEuNDUsMTEuNDVDNjcuNzQsNjYuMTcsNzIuODYsNjEuMDUsNzIuODYsNTQuNzMgTDcyLjg2LDU0LjczeiBNMzYuMzQsMC4xTDM2LjM0LDAuMUwzNi4zNCwwLjFMMzYuMzQsMC4xeiBNOTAuMjcsMzguMDJjLTAuOTMsMy4yMy0yLjA4LDYuNTYtMy4zOCw5Ljg5Yy0xLjAzLTItMi4xLTQuMDEtMy4yOC02LjAxIGMtMS4xNS0yLTIuMzgtMy45Ni0zLjYxLTUuODZDODMuNTYsMzYuNTcsODYuOTksMzcuMjIsOTAuMjcsMzguMDJMOTAuMjcsMzguMDJ6IE03OC44LDY0LjdjLTEuOTUsMy4zOC0zLjk2LDYuNTktNi4wNCw5LjU3IGMtMy43MywwLjMzLTcuNTEsMC41LTExLjMyLDAuNWMtMy43OCwwLTcuNTYtMC4xOC0xMS4yNy0wLjQ4Yy0yLjA4LTIuOTgtNC4xMS02LjE2LTYuMDYtOS41MmMtMS45LTMuMjgtMy42My02LjYxLTUuMjEtOS45NyBjMS41NS0zLjM2LDMuMzEtNi43MSw1LjE4LTkuOTljMS45NS0zLjM4LDMuOTYtNi41OSw2LjA0LTkuNTdjMy43My0wLjMzLDcuNTEtMC41LDExLjMyLTAuNWMzLjc4LDAsNy41NiwwLjE4LDExLjI3LDAuNDggYzIuMDgsMi45OCw0LjExLDYuMTYsNi4wNiw5LjUyYzEuOSwzLjI4LDMuNjMsNi42MSw1LjIxLDkuOTdDODIuNCw1OC4wNiw4MC42OCw2MS40MSw3OC44LDY0LjdMNzguOCw2NC43eiBNODYuODksNjEuNDQgYzEuMzUsMy4zNiwyLjUsNi43MSwzLjQ2LDkuOTdjLTMuMjgsMC44LTYuNzQsMS40OC0xMC4zMiwyYzEuMjMtMS45MywyLjQ1LTMuOTEsMy42MS01Ljk0Qzg0Ljc4LDY1LjQ3LDg1Ljg2LDYzLjQ0LDg2Ljg5LDYxLjQ0IEw4Ni44OSw2MS40NHogTTYxLjQ5LDg4LjE2Yy0yLjMzLTIuNC00LjY2LTUuMDgtNi45Ni04LjAxYzIuMjUsMC4xLDQuNTYsMC4xOCw2Ljg5LDAuMThjMi4zNSwwLDQuNjgtMC4wNSw2Ljk2LTAuMTggQzY2LjEyLDgzLjA4LDYzLjc5LDg1Ljc2LDYxLjQ5LDg4LjE2TDYxLjQ5LDg4LjE2eiBNNDIuODYsNzMuNDFjLTMuNTYtMC41My02Ljk5LTEuMTgtMTAuMjctMS45OGMwLjkzLTMuMjMsMi4wOC02LjU2LDMuMzgtOS44OSBjMS4wMywyLDIuMSw0LjAxLDMuMjgsNi4wMUM0MC40Myw2OS41Niw0MS42Myw3MS41MSw0Mi44Niw3My40MUw0Mi44Niw3My40MXogTTYxLjM2LDIxLjI5YzIuMzMsMi40LDQuNjYsNS4wOCw2Ljk2LDguMDEgYy0yLjI1LTAuMS00LjU2LTAuMTgtNi44OS0wLjE4Yy0yLjM1LDAtNC42OCwwLjA1LTYuOTYsMC4xOEM1Ni43MywyNi4zNyw1OS4wNiwyMy42OSw2MS4zNiwyMS4yOUw2MS4zNiwyMS4yOXogTTQyLjgzLDM2LjA0IGMtMS4yMywxLjkzLTIuNDUsMy45MS0zLjYxLDUuOTRjLTEuMTUsMi0yLjIzLDQuMDEtMy4yNiw2LjAxYy0xLjM1LTMuMzYtMi41LTYuNzEtMy40Ni05Ljk3QzM1Ljc5LDM3LjI0LDM5LjI1LDM2LjU3LDQyLjgzLDM2LjA0IEw0Mi44MywzNi4wNHogTTIwLjE2LDY3LjRjLTguODctMy43OC0xNC42LTguNzQtMTQuNi0xMi42N2MwLTMuOTMsNS43NC04LjkyLDE0LjYtMTIuNjdjMi4xNS0wLjkzLDQuNTEtMS43NSw2Ljk0LTIuNTMgYzEuNDMsNC45MSwzLjMxLDEwLjAyLDUuNjQsMTUuMjVjLTIuMyw1LjIxLTQuMTYsMTAuMjktNS41NiwxNS4xOEMyNC43LDY5LjE4LDIyLjM0LDY4LjMzLDIwLjE2LDY3LjRMMjAuMTYsNjcuNHogTTMzLjY0LDEwMy4xOSBjLTMuNDEtMS45NS00Ljg4LTkuMzktMy43My0xOC45NmMwLjI4LTIuMzUsMC43My00LjgzLDEuMjgtNy4zNmM0LjkxLDEuMiwxMC4yNywyLjEzLDE1LjksMi43M2MzLjM4LDQuNjMsNi44OSw4Ljg0LDEwLjQyLDEyLjUyIGMtOC4xNyw3LjU5LTE1LjgzLDExLjc1LTIxLjA0LDExLjc1QzM1LjM0LDEwMy44NCwzNC4zOSwxMDMuNjIsMzMuNjQsMTAzLjE5TDMzLjY0LDEwMy4xOXogTTkzLjA1LDg0LjExIGMxLjE4LDkuNTctMC4yOCwxNy4wMS0zLjY2LDE4Ljk5Yy0wLjc1LDAuNDUtMS43MywwLjY1LTIuODgsMC42NWMtNS4xOCwwLTEyLjg3LTQuMTMtMjEuMDQtMTEuNjdjMy41MS0zLjY4LDcuMDEtNy44NiwxMC4zNC0xMi41IGM1LjY2LTAuNiwxMS4wMi0xLjUzLDE1LjkzLTIuNzZDOTIuMzIsNzkuMzUsOTIuNzcsODEuNzgsOTMuMDUsODQuMTFMOTMuMDUsODQuMTF6IE0xMDIuNjksNjcuNGMtMi4xNSwwLjkzLTQuNTEsMS43NS02Ljk0LDIuNTMgYy0xLjQzLTQuOTEtMy4zMS0xMC4wMi01LjY0LTE1LjI1YzIuMy01LjIxLDQuMTYtMTAuMjksNS41Ni0xNS4xOGMyLjQ4LDAuNzgsNC44MywxLjYzLDcuMDQsMi41NWM4Ljg3LDMuNzgsMTQuNiw4Ljc0LDE0LjYsMTIuNjcgQzExNy4yOSw1OC42NiwxMTEuNTYsNjMuNjQsMTAyLjY5LDY3LjRMMTAyLjY5LDY3LjR6IiBjbGFzcz0ic3QwIi8+PC9nPjwvc3ZnPg==" vertex="1" parent="1">
          <mxGeometry x="521.79" y="495" width="56.42" height="50" as="geometry" />
        </mxCell>
      </root>
    </mxGraphModel>
  </diagram>
</mxfile>
